<svg width="259" height="46" viewBox="0 0 259 46" fill="none" xmlns="http://www.w3.org/2000/svg">
<path d="M35.7486 14.2727H25.8764C25.9474 13.4323 25.9001 12.6747 25.7344 12C25.5687 11.3253 25.2846 10.7453 24.8821 10.2599C24.4796 9.76278 23.9529 9.38399 23.3018 9.12358C22.6508 8.86316 21.8755 8.73295 20.9759 8.73295C19.2476 8.73295 17.7029 9.16501 16.3416 10.0291C14.9804 10.8814 13.8499 12.1065 12.9503 13.7045C12.0507 15.2907 11.4115 17.1847 11.0327 19.3864C10.7012 21.517 10.6894 23.2867 10.9972 24.6953C11.3168 26.1039 11.9382 27.1574 12.8615 27.8558C13.7966 28.5542 15.0099 28.9034 16.5014 28.9034C17.4957 28.9034 18.4072 28.785 19.2358 28.5483C20.0762 28.3116 20.822 27.9742 21.473 27.5362C22.1359 27.0864 22.6982 26.5537 23.1598 25.9382C23.6333 25.3108 23.9943 24.6184 24.2429 23.8608H34.1861C33.8073 25.3996 33.1326 26.974 32.1619 28.5838C31.1913 30.1818 29.9366 31.6555 28.3977 33.005C26.8589 34.3426 25.0478 35.4257 22.9645 36.2543C20.8812 37.0829 18.5374 37.4972 15.9332 37.4972C12.5241 37.4972 9.58262 36.7514 7.10866 35.2599C4.64654 33.7685 2.85914 31.5904 1.74645 28.7259C0.645597 25.8613 0.42661 22.3693 1.08949 18.25C1.75237 14.2727 3.06037 10.9406 5.01349 8.25355C6.96662 5.56652 9.33996 3.54238 12.1335 2.18111C14.9271 0.819838 17.8982 0.139203 21.0469 0.139203C23.4261 0.139203 25.5568 0.452887 27.4389 1.08025C29.3329 1.70762 30.925 2.625 32.2152 3.83238C33.5173 5.02793 34.4761 6.50166 35.0916 8.25355C35.7072 10.0054 35.9261 12.0118 35.7486 14.2727ZM66.6124 9.72727L63.0968 30.8565H67.7488L65.334 45.7003H55.888L57.3084 37H36.6408L41.1863 9.72727H50.4192L47.0811 29.6847H54.1834L57.5215 9.72727H66.6124ZM69.1692 37L70.3056 29.6136H71.1578C71.6905 29.6136 72.1877 29.4598 72.6493 29.152C73.111 28.8442 73.543 28.3707 73.9455 27.7315C74.348 27.0923 74.7149 26.2815 75.0463 25.299C75.3896 24.3165 75.7033 23.1506 75.9874 21.8011L78.4022 9.72727H100.845L96.2999 37H87.0669L90.405 17.0426H85.8596L84.226 24.429C83.717 26.7491 83.0542 28.714 82.2374 30.3239C81.4325 31.9337 80.5033 33.2299 79.4498 34.2124C78.3962 35.183 77.2421 35.8932 75.9874 36.343C74.7445 36.781 73.4187 37 72.0101 37H69.1692ZM123.439 19.5994L122.232 26.9148H108.525L109.732 19.5994H123.439ZM114.846 9.72727L110.3 37H101.067L105.613 9.72727H114.846ZM130.826 9.72727L126.28 37H117.118L121.664 9.72727H130.826ZM154.006 37.4972C151.047 37.4972 148.608 36.9112 146.691 35.7393C144.773 34.5556 143.429 32.9103 142.66 30.8033C141.891 28.6844 141.743 26.2282 142.216 23.4347C142.666 20.6411 143.625 18.1908 145.093 16.0838C146.572 13.965 148.466 12.3196 150.774 11.1477C153.094 9.96401 155.734 9.37216 158.693 9.37216C161.369 9.37216 163.6 9.85748 165.387 10.8281C167.186 11.7869 168.471 13.1482 169.24 14.9119C170.021 16.6638 170.223 18.7235 169.844 21.0909H160.753C160.86 19.6705 160.629 18.5814 160.061 17.8239C159.504 17.0663 158.693 16.6875 157.628 16.6875C156.752 16.6875 155.947 16.9361 155.213 17.4332C154.491 17.9186 153.87 18.6584 153.349 19.6527C152.84 20.6352 152.467 21.8722 152.23 23.3636C151.994 24.8551 151.964 26.098 152.142 27.0923C152.331 28.0748 152.698 28.8146 153.242 29.3118C153.799 29.7971 154.503 30.0398 155.355 30.0398C156.089 30.0398 156.764 29.8741 157.379 29.5426C158.007 29.1993 158.545 28.7022 158.995 28.0511C159.457 27.3883 159.806 26.5833 160.043 25.6364H169.134C168.684 28.0511 167.778 30.1463 166.417 31.9219C165.056 33.6974 163.322 35.0705 161.215 36.0412C159.108 37.0118 156.705 37.4972 154.006 37.4972ZM184.257 37.4972C181.345 37.4972 178.93 36.9408 177.013 35.8281C175.095 34.7036 173.746 33.0937 172.964 30.9986C172.183 28.8916 172.041 26.3703 172.538 23.4347C173.012 20.6174 173.988 18.1553 175.468 16.0483C176.96 13.9413 178.836 12.3018 181.097 11.13C183.369 9.9581 185.914 9.37216 188.732 9.37216C190.791 9.37216 192.596 9.69176 194.147 10.331C195.71 10.9702 196.982 11.8994 197.964 13.1186C198.947 14.3378 199.61 15.8116 199.953 17.5398C200.308 19.2562 200.308 21.1974 199.953 23.3636L199.598 25.6364H175.237L176.089 20.2386H191.43C191.549 19.4574 191.472 18.7708 191.2 18.179C190.939 17.5753 190.519 17.1077 189.939 16.7763C189.371 16.433 188.684 16.2614 187.879 16.2614C187.074 16.2614 186.317 16.433 185.607 16.7763C184.908 17.1196 184.31 17.599 183.813 18.2145C183.328 18.83 183.002 19.5521 182.837 20.3807L181.771 26.0625C181.629 26.9384 181.683 27.7197 181.931 28.4062C182.18 29.0928 182.612 29.6314 183.227 30.022C183.843 30.4126 184.636 30.608 185.607 30.608C186.269 30.608 186.897 30.5192 187.489 30.3416C188.092 30.1522 188.625 29.88 189.087 29.5249C189.56 29.1579 189.939 28.714 190.223 28.1932H199.172C198.533 30.0871 197.521 31.7325 196.136 33.1293C194.763 34.5142 193.07 35.5914 191.058 36.3608C189.057 37.1184 186.79 37.4972 184.257 37.4972ZM203.18 17.0426L204.388 9.72727H230.808L229.601 17.0426H220.936L217.598 37H208.365L211.703 17.0426H203.18ZM238.78 17.1136H247.161C251.032 17.1136 253.938 18.0133 255.879 19.8125C257.82 21.5999 258.537 24.062 258.028 27.1989C257.684 29.223 256.879 30.969 255.613 32.4368C254.358 33.9046 252.73 35.035 250.73 35.8281C248.729 36.6094 246.427 37 243.823 37H229.974L234.519 9.72727H243.752L240.414 29.6847H245.03C246.048 29.6847 246.918 29.4479 247.64 28.9744C248.374 28.4891 248.806 27.8736 248.937 27.1278C249.067 26.3348 248.848 25.6896 248.28 25.1925C247.711 24.6835 246.936 24.429 245.954 24.429H237.573L238.78 17.1136Z" fill="#D3D3D3"/>
</svg>
